# xmcd CD database file
#
# Track frame offsets:
#	150
#	18100
#	39957
#	63892
#	77655
#	113832
#	134172
#	153470
#	184885
#	200142
#
# Disc length: 2858 seconds
#
# Revision: 0
# Processed by: cddbd v1.5.2PL0 Copyright (c) Steve Scherf et al.
# Submitted via: CDex 1.70beta2
#
DISCID=830b280a
DTITLE=Sweet Roy Jones - Qualified to Sing the Blues
DYEAR=1996
DGENRE=Blues
TTITLE0=A Blues
TTITLE1=Bayou Annie
TTITLE2=Qualified to Sing the Blues
TTITLE3=Gonna Play Some Blues
TTITLE4=Hello Mr. Sunshine
TTITLE5=Breeana Lee
TTITLE6=Blues Will Never Die
TTITLE7=Solid Ground
TTITLE8=Bob Filion
TTITLE9=Blues Farmer
EXTD=YEAR: 1996
EXTT0=
EXTT1=
EXTT2=
EXTT3=
EXTT4=
EXTT5=
EXTT6=
EXTT7=
EXTT8=
EXTT9=
PLAYORDER=
